<?xml version="1.0" standalone="no"?>
<!DOCTYPE svg PUBLIC "-//W3C//DTD SVG 20010904//EN"
 "http://www.w3.org/TR/2001/REC-SVG-20010904/DTD/svg10.dtd">
<svg version="1.0" xmlns="http://www.w3.org/2000/svg"
 width="985.000000pt" height="985.000000pt" viewBox="0 0 985.000000 985.000000"
 preserveAspectRatio="xMidYMid meet">
<metadata>
Created by potrace 1.11, written by Peter Selinger 2001-2013
</metadata>
<g transform="translate(0.000000,985.000000) scale(0.100000,-0.100000)"
fill="#000000" stroke="none">
<path d="M7139 9846 c-2 -2 -35 -6 -74 -10 -38 -3 -81 -8 -95 -10 -14 -3 -43
-8 -65 -11 -22 -4 -44 -8 -50 -9 -5 -1 -37 -8 -70 -15 -33 -7 -112 -29 -175
-49 -63 -19 -117 -36 -120 -37 -39 -6 -280 -118 -395 -184 -218 -125 -490
-353 -641 -536 -27 -33 -57 -69 -68 -80 -41 -45 -198 -291 -249 -392 -119
-233 -208 -510 -243 -748 -3 -22 -7 -51 -9 -65 -22 -128 -24 -462 -5 -587 4
-27 11 -75 15 -108 3 -32 8 -62 10 -65 2 -3 6 -23 9 -44 19 -121 91 -346 162
-508 167 -383 455 -739 797 -989 45 -32 87 -63 92 -67 61 -46 250 -147 435
-229 79 -36 318 -109 415 -128 221 -42 296 -49 520 -49 190 0 288 8 455 39
731 136 1374 613 1725 1280 43 81 107 224 121 270 2 6 19 56 38 112 33 96 78
280 91 368 19 140 23 202 23 395 0 118 -4 244 -9 280 -5 36 -12 83 -15 105
-56 389 -249 829 -504 1146 -386 480 -955 812 -1541 899 -41 6 -85 14 -99 17
-29 6 -475 15 -481 9z"/>
<path d="M2437 4924 c-1 -1 -49 -4 -106 -8 -58 -4 -107 -8 -110 -10 -3 -2 -33
-7 -66 -10 -125 -14 -350 -72 -500 -129 -874 -336 -1477 -1111 -1583 -2037
-15 -132 -6 -575 13 -632 2 -7 6 -31 9 -53 9 -72 46 -224 77 -323 120 -380
324 -717 602 -995 62 -62 126 -124 142 -138 369 -311 837 -519 1295 -576 82
-10 548 -11 618 0 28 4 69 10 90 13 152 22 435 103 557 159 28 12 73 32 100
44 28 13 102 52 165 87 357 201 663 496 883 852 49 79 100 169 102 182 1 3 12
28 27 55 49 95 140 350 164 455 11 51 15 70 28 140 34 179 41 253 40 470 0
197 -6 259 -40 446 -60 330 -190 645 -382 928 -291 428 -717 760 -1197 932
-158 57 -340 104 -460 119 -27 4 -61 8 -74 10 -69 11 -384 27 -394 19z"/>
</g>
</svg>
